<svg xmlns="http://www.w3.org/2000/svg" xmlns:xlink="http://www.w3.org/1999/xlink" width="78" height="78" viewBox="0 0 78 78">
  <defs>
    <style>
      .cls-1 {
        fill: #fff;
      }

      .cls-2 {
        filter: url(#Ellipse_1901);
      }
    </style>
    <filter id="Ellipse_1901" x="0" y="0" width="78" height="78" filterUnits="userSpaceOnUse">
      <feOffset dy="3" input="SourceAlpha"/>
      <feGaussianBlur stdDeviation="3" result="blur"/>
      <feFlood flood-opacity="0.361"/>
      <feComposite operator="in" in2="blur"/>
      <feComposite in="SourceGraphic"/>
    </filter>
  </defs>
  <g id="Group_130121" data-name="Group 130121" transform="translate(8.945 6)">
    <g class="cls-2" transform="matrix(1, 0, 0, 1, -8.95, -6)">
      <circle id="Ellipse_1901-2" data-name="Ellipse 1901" class="cls-1" cx="30" cy="30" r="30" transform="translate(9 6)"/>
    </g>
    <g id="fast" transform="translate(12.842 12.842)">
      <g id="Group_130061" data-name="Group 130061" transform="translate(0 0)">
        <path id="Path_142931" data-name="Path 142931" d="M214.564,142.306l1.254-1.254a.54.54,0,0,0,0-.764l-1.543-1.543a.54.54,0,0,0-.764,0L212.258,140a11.391,11.391,0,0,0-5.226-2.169v-1.218h1.278a.54.54,0,0,0,.54-.54v-2.182a.54.54,0,0,0-.54-.54h-5.818a.54.54,0,0,0-.54.54v2.182a.54.54,0,0,0,.54.54h1.278v1.216a11.327,11.327,0,0,0-6.7,3.486.54.54,0,1,0,.786.741,10.273,10.273,0,0,1,7.55-3.261,10.364,10.364,0,1,1-8.98,5.181.54.54,0,0,0-.935-.541,11.452,11.452,0,1,0,19.077-1.127Zm-.671-2.415.779.779-.8.8q-.371-.408-.779-.779Zm-10.861-5.461h4.738v1.1h-4.738Zm1.818,3.3v-1.114h1.1v1.115q-.274-.013-.551-.014T204.85,137.727Z" transform="translate(-179.989 -123.75)"/>
        <path id="Path_142932" data-name="Path 142932" d="M331.955,277.339a1.631,1.631,0,0,0,.54-3.169v-3.916a.54.54,0,1,0-1.08,0v3.916a1.631,1.631,0,0,0,.54,3.169Zm0-2.182a.551.551,0,1,1-.551.551A.552.552,0,0,1,331.955,275.157Z" transform="translate(-306.542 -250.296)"/>
        <path id="Path_142933" data-name="Path 142933" d="M233.523,242.789a9.267,9.267,0,1,0-9.267-9.267A9.278,9.278,0,0,0,233.523,242.789Zm0-17.454a8.187,8.187,0,1,1-8.187,8.187A8.2,8.2,0,0,1,233.523,225.335Z" transform="translate(-208.111 -208.11)"/>
        <path id="Path_142934" data-name="Path 142934" d="M2.113,15.182h3.91l2.833,2.242A.54.54,0,0,0,9.73,17V15.182h6.926a2.115,2.115,0,0,0,2.113-2.113V6.4a.54.54,0,1,0-1.08,0v6.664A1.034,1.034,0,0,1,16.656,14.1H9.19a.54.54,0,0,0-.54.54v1.243l-2.1-1.666A.539.539,0,0,0,6.21,14.1h-4.1A1.034,1.034,0,0,1,1.08,13.069V2.113A1.034,1.034,0,0,1,2.113,1.08H16.657a1.034,1.034,0,0,1,1.033,1.033v1.77a.54.54,0,1,0,1.08,0V2.113A2.115,2.115,0,0,0,16.656,0H2.113A2.115,2.115,0,0,0,0,2.113V13.069a2.115,2.115,0,0,0,2.113,2.113Z" transform="translate(0 0)"/>
        <path id="Path_142935" data-name="Path 142935" d="M59.471,37.989a.54.54,0,0,0-.764,0L56.293,40.4a.54.54,0,0,0,0,.764l1.018,1.018a3.092,3.092,0,0,0,4.367,0l4.238-4.238a3.088,3.088,0,0,0,0-4.367L64.9,32.562a.54.54,0,0,0-.764,0l-2.414,2.414a.54.54,0,0,0,0,.764l.879.879-2.25,2.249Zm3.914-.628a1.05,1.05,0,0,0,0-1.484l-.519-.519,1.651-1.651.637.637a2.008,2.008,0,0,1,0,2.84l-4.238,4.238a2.01,2.01,0,0,1-2.84,0l-.637-.637,1.651-1.651.519.519a1.05,1.05,0,0,0,1.484,0Z" transform="translate(-52.094 -30.071)"/>
        <path id="Path_142936" data-name="Path 142936" d="M.54,346.556H9.994a.54.54,0,1,0,0-1.08H.54a.54.54,0,1,0,0,1.08Z" transform="translate(0 -320.604)"/>
        <path id="Path_142937" data-name="Path 142937" d="M.54,306.149H2.285a.54.54,0,0,0,0-1.08H.54a.54.54,0,0,0,0,1.08Z" transform="translate(0 -283.106)"/>
        <path id="Path_142938" data-name="Path 142938" d="M62.961,305.069H56.048a.54.54,0,1,0,0,1.08h6.913a.54.54,0,0,0,0-1.08Z" transform="translate(-51.512 -283.106)"/>
        <path id="Path_142939" data-name="Path 142939" d="M27.83,265.2a.54.54,0,0,0-.54-.54H20.743a.54.54,0,0,0,0,1.08H27.29A.54.54,0,0,0,27.83,265.2Z" transform="translate(-18.748 -245.609)"/>
        <path id="Path_142940" data-name="Path 142940" d="M144.145,264.663h-2.182a.54.54,0,1,0,0,1.08h2.182a.54.54,0,1,0,0-1.08Z" transform="translate(-131.241 -245.609)"/>
        <path id="Path_142941" data-name="Path 142941" d="M2.825,386.422a.54.54,0,0,0-.54-.54H.54a.54.54,0,0,0,0,1.08H2.285A.54.54,0,0,0,2.825,386.422Z" transform="translate(0 -358.1)"/>
        <path id="Path_142942" data-name="Path 142942" d="M62.961,385.882H56.048a.54.54,0,1,0,0,1.08h6.913a.54.54,0,0,0,0-1.08Z" transform="translate(-51.512 -358.1)"/>
        <path id="Path_142943" data-name="Path 142943" d="M27.29,426.289H20.743a.54.54,0,1,0,0,1.08H27.29a.54.54,0,1,0,0-1.08Z" transform="translate(-18.748 -395.598)"/>
        <path id="Path_142944" data-name="Path 142944" d="M144.145,426.289h-2.182a.54.54,0,1,0,0,1.08h2.182a.54.54,0,1,0,0-1.08Z" transform="translate(-131.241 -395.598)"/>
      </g>
    </g>
  </g>
</svg>
