<svg xmlns="http://www.w3.org/2000/svg" xmlns:xlink="http://www.w3.org/1999/xlink" width="78" height="78" viewBox="0 0 78 78">
  <defs>
    <style>
      .cls-1 {
        fill: #fff;
      }

      .cls-2 {
        filter: url(#Ellipse_1905);
      }
    </style>
    <filter id="Ellipse_1905" x="0" y="0" width="78" height="78" filterUnits="userSpaceOnUse">
      <feOffset dy="3" input="SourceAlpha"/>
      <feGaussianBlur stdDeviation="3" result="blur"/>
      <feFlood flood-opacity="0.361"/>
      <feComposite operator="in" in2="blur"/>
      <feComposite in="SourceGraphic"/>
    </filter>
  </defs>
  <g id="Group_130119" data-name="Group 130119" transform="translate(9 6)">
    <g class="cls-2" transform="matrix(1, 0, 0, 1, -9, -6)">
      <circle id="Ellipse_1905-2" data-name="Ellipse 1905" class="cls-1" cx="30" cy="30" r="30" transform="translate(9 6)"/>
    </g>
    <g id="cooperation" transform="translate(12.2 12.2)">
      <g id="Group_130091" data-name="Group 130091" transform="translate(0 0)">
        <path id="Path_142959" data-name="Path 142959" d="M34.869,171.243l-9.617,5.732a1.682,1.682,0,0,0-.708,2.041,1.8,1.8,0,0,1-1.348.018l-1.244-.489a2.52,2.52,0,0,0-1.549-.1l-1.906.482q-.111.028-.217.065a3.045,3.045,0,0,0-3.087-.388l-1.1.426a1.8,1.8,0,0,1-1.578-.132l-.368-.217a1.682,1.682,0,0,0-.8-1.71L1.73,171.243a1.144,1.144,0,0,0-1.73.983V182.96a2.125,2.125,0,0,0,1.032,1.817l4.2,2.5a1.677,1.677,0,0,0,2.271-.535l.179.106-.544.758A1.886,1.886,0,0,0,9,190.567a1.885,1.885,0,0,0,2.195,1.574,1.886,1.886,0,0,0,2.644,1.437,1.887,1.887,0,0,0,3.241.542l1.41.835a1.887,1.887,0,0,0,2.841-1.457l.055.033A1.888,1.888,0,0,0,24.231,192a1.89,1.89,0,0,0,2.386-1.671,1.887,1.887,0,0,0,2.149-2.987l.553-.323a1.678,1.678,0,0,0,2.049.258l1.015-.605a.536.536,0,1,0-.549-.921l-1.015.605a.606.606,0,0,1-.718-.073c0-.03-4.51-7.561-4.51-7.561a.607.607,0,0,1,.211-.829l9.617-5.732a.071.071,0,0,1,.109.062V182.96a1.048,1.048,0,0,1-.509.9l-1.014.6a.536.536,0,0,0,.549.921l1.014-.6A2.125,2.125,0,0,0,36.6,182.96V172.226a1.144,1.144,0,0,0-1.73-.983Zm-14.2,8.245a1.456,1.456,0,0,1,.894.057l1.247.49a2.865,2.865,0,0,0,2.266-.079l3.656,6.17-.592.346a2.865,2.865,0,0,0-.309.211l-7.818-4.63a.536.536,0,0,0-.809.461v.108a1.427,1.427,0,0,1-1.427,1.427.12.12,0,0,1-.117-.117v-2.544a1.462,1.462,0,0,1,.785-1.3.532.532,0,0,0,.069-.034,1.474,1.474,0,0,1,.25-.088ZM6.24,186.426a.6.6,0,0,1-.46-.067l-4.2-2.5a1.048,1.048,0,0,1-.509-.9V172.226a.066.066,0,0,1,.036-.062.073.073,0,0,1,.036-.01.069.069,0,0,1,.036.011L10.8,177.9a.607.607,0,0,1,.211.829l-4.4,7.423A.6.6,0,0,1,6.24,186.426ZM8.8,189.513a.814.814,0,0,1-.793-1.278l.765-1.065a.817.817,0,0,1,.06-.074.538.538,0,0,0,.045-.046.814.814,0,0,1,1.218,1.069v0l-.764,1.064a.809.809,0,0,1-.529.328Zm1.587,1.433a.814.814,0,0,1-.187-1.136l.765-1.065h0l.844-1.176a.809.809,0,0,1,.529-.329.822.822,0,0,1,.134-.011.815.815,0,0,1,.66,1.289l-1.609,2.241A.815.815,0,0,1,10.389,190.946Zm2.8,1.717a.814.814,0,0,1-.793-1.278v0l1.608-2.239a.814.814,0,1,1,1.323.95l-1.609,2.241A.809.809,0,0,1,13.189,192.663Zm1.946.933a.814.814,0,0,1-.187-1.136l0,0,.534-.744a.814.814,0,0,1,1.322.951l-.306.426-.009.013-.22.306A.815.815,0,0,1,15.135,193.6Zm12.917-4.587a.816.816,0,0,1-1.116.286l-1.239-.734h0l-3.839-2.274a.536.536,0,1,0-.547.922l3.84,2.275h0a.815.815,0,0,1-.831,1.4l-1.01-.6,0,0h0l-2.828-1.675a.536.536,0,0,0-.547.922l2.828,1.675h0a.815.815,0,0,1-.83,1.4l-1.516-.9,0,0-1.109-.657a.536.536,0,0,0-.546.923l1.109.657h0a.815.815,0,0,1-.832,1.4l-1.327-.786a1.886,1.886,0,0,0-1.29-2.924,1.886,1.886,0,0,0-2.08-2.561,1.886,1.886,0,0,0-3.24-1.009,1.886,1.886,0,0,0-2.667-.7l-.38-.224,3.648-6.157.269.159a2.868,2.868,0,0,0,2.51.209l1.1-.426a1.736,1.736,0,0,1,1.679.057,2.532,2.532,0,0,0-.675,1.724v2.544a1.19,1.19,0,0,0,1.187,1.189h0a2.5,2.5,0,0,0,2.381-1.736l7.467,4.422a.533.533,0,0,0,.076.037.543.543,0,0,0,.069.049A.816.816,0,0,1,28.052,189.009Z" transform="translate(0 -159.081)"/>
        <path id="Path_142960" data-name="Path 142960" d="M143.81,17.2H156.1a2.02,2.02,0,0,0,2.018-2.018V7.866A2.02,2.02,0,0,0,156.1,5.848h-2.959V5a1.773,1.773,0,0,0-1.77-1.771h-2.833A1.773,1.773,0,0,0,146.769,5v.85H143.81a2.02,2.02,0,0,0-2.018,2.018v4.028a.536.536,0,0,0,1.072,0v-1a3.209,3.209,0,0,0,2.149.824h.42v.59a.536.536,0,1,0,1.072,0v-.59h6.9v.59a.536.536,0,0,0,1.072,0v-.59h.42a3.209,3.209,0,0,0,2.149-.824v4.281a.947.947,0,0,1-.946.946H143.81a.947.947,0,0,1-.946-.946V14.4a.536.536,0,0,0-1.072,0v.778A2.02,2.02,0,0,0,143.81,17.2ZM147.841,5a.7.7,0,0,1,.7-.7h2.833a.7.7,0,0,1,.7.7v.85h-4.229V5ZM154.9,10.65h-.42v-.59a.536.536,0,1,0-1.072,0v.59h-6.9v-.59a.536.536,0,1,0-1.072,0v.59h-.42A2.152,2.152,0,0,1,142.864,8.5V7.866a.947.947,0,0,1,.946-.946H156.1a.947.947,0,0,1,.946.946V8.5A2.152,2.152,0,0,1,154.9,10.65Z" transform="translate(-131.656 -3.228)"/>
      </g>
    </g>
  </g>
</svg>
