<svg id="My_Transaction" data-name="My Transaction" xmlns="http://www.w3.org/2000/svg" width="28" height="28" viewBox="0 0 28 28">
  <defs>
    <style>
      .cls-1 {
        fill: none;
      }

      .cls-2 {
        fill: #111;
        stroke: #111;
        stroke-width: 0.4px;
      }
    </style>
  </defs>
  <path id="Rectangle_91" class="cls-1" d="M0,0H28V28H0Z"/>
  <g id="XMLID_59_" transform="translate(3.138 3.138)">
    <g id="XMLID_969_" transform="translate(0 0)">
      <path id="XMLID_1023_" class="cls-2" d="M19.474,0H16.081a.424.424,0,0,0,0,.849h3.393a1.4,1.4,0,0,1,1.4,1.4V9.121a1.4,1.4,0,0,1-1.4,1.4.424.424,0,0,0-.424.424v1.8l-2.481-2.118a.424.424,0,0,0-.276-.1H8.87a1.4,1.4,0,0,1-1.4-1.4V2.25a1.4,1.4,0,0,1,1.4-1.4H17A.424.424,0,0,0,17,0H8.87a2.253,2.253,0,0,0-2.25,2.25V7.637H2.25A2.253,2.253,0,0,0,0,9.888v6.871a2.254,2.254,0,0,0,1.826,2.21V21.3a.424.424,0,0,0,.7.323l3.062-2.614h7.267a2.253,2.253,0,0,0,2.25-2.25V11.371h1.032L19.2,13.985a.424.424,0,0,0,.7-.323V11.331a2.254,2.254,0,0,0,1.826-2.21V2.25A2.253,2.253,0,0,0,19.474,0ZM7.56,11.86,8.4,14.087H6.711Zm6.7,4.9a1.4,1.4,0,0,1-1.4,1.4H5.431a.424.424,0,0,0-.276.1L2.675,20.38v-1.8a.424.424,0,0,0-.424-.424,1.4,1.4,0,0,1-1.4-1.4V9.888a1.4,1.4,0,0,1,1.4-1.4H6.619v.635a2.241,2.241,0,0,0,.557,1.48.535.535,0,0,0-.11.169l0,.01L5.247,15.548a.424.424,0,1,0,.793.3l.348-.914H8.72l.345.913a.424.424,0,1,0,.794-.3l-1.61-4.265a2.243,2.243,0,0,0,.62.088h5.387Z" transform="translate(0 0)"/>
      <path id="Path_145126" data-name="Path 145126" class="cls-2" d="M-3.88-3.77l-.607.607a2.927,2.927,0,0,0,2.1.888A2.007,2.007,0,0,0-.189-4.26a2.275,2.275,0,0,0-.023-.292,2.019,2.019,0,0,0,.876.187,1.91,1.91,0,0,0,.782-.164v3.036h.888v-6.75H3.747V-8.99H.2v.747h1.25V-5.37a1.906,1.906,0,0,1-1,.245A2.155,2.155,0,0,1-.668-5.417a1.672,1.672,0,0,0-.689-.374v-.047A1.617,1.617,0,0,0-.528-7.262,1.726,1.726,0,0,0-2.408-9a2.057,2.057,0,0,0-1.658.747l.619.561a1.18,1.18,0,0,1,1.016-.514.941.941,0,0,1,1.016,1A1.1,1.1,0,0,1-2.63-6.071h-.362v.782h.631c.829,0,1.285.385,1.285,1.039A1.168,1.168,0,0,1-2.385-3.057,1.948,1.948,0,0,1-3.88-3.77Z" transform="translate(14.226 11.774)"/>
    </g>
  </g>
</svg>
