<svg xmlns="http://www.w3.org/2000/svg" width="28" height="28" viewBox="0 0 28 28">
    <g data-name="Edit Profile">
        <path d="M0 0h28v28H0z" style="fill:none"/>
        <path data-name="Path 142838" d="M22.557 16.126a1.817 1.817 0 0 0-.879-2.417l-2.227-1.039a1.818 1.818 0 0 0-2.416.88l-2.268 4.864a1.822 1.822 0 0 0-.095 1.289l.864 2.892a.779.779 0 0 0 1.056.492l2.77-1.2a1.818 1.818 0 0 0 .927-.9zm-1.412-.659-2.268 4.864a.26.26 0 0 1-.133.129l-1.965.849-.613-2.051a.267.267 0 0 1 .014-.184l2.268-4.865a.262.262 0 0 1 .147-.134.256.256 0 0 1 .2.009l2.226 1.037a.261.261 0 0 1 .126.346z" transform="translate(2.273 1.766)" style="fill-rule:evenodd"/>
        <path data-name="Path 142839" d="M13.98 21.03H3.017a.209.209 0 0 1-.208-.208v-1.507a2.949 2.949 0 0 1 1.566-2.271 13.88 13.88 0 0 1 7.525-1.885 18.37 18.37 0 0 1 2.493.166.78.78 0 0 0 .21-1.545 20.054 20.054 0 0 0-2.7-.18A15.464 15.464 0 0 0 3.5 15.757a4.449 4.449 0 0 0-2.25 3.558v1.507a1.767 1.767 0 0 0 1.767 1.767H13.98a.779.779 0 1 0 0-1.559z" transform="translate(1.75 1.81)" style="fill-rule:evenodd"/>
        <path data-name="Path 142840" d="M11.715 1.737a5.715 5.715 0 1 0 5.715 5.715 5.718 5.718 0 0 0-5.715-5.715zm0 1.559a4.157 4.157 0 1 1-4.156 4.156A4.159 4.159 0 0 1 11.715 3.3z" transform="translate(1.936 1.345)" style="fill-rule:evenodd"/>
    </g>
</svg>
