<svg xmlns="http://www.w3.org/2000/svg" width="28" height="28" viewBox="0 0 28 28">
    <path d="M0 0h28v28H0z" style="fill:none"/>
    <path data-name="Path 3484" d="M1814.1 4948.969a1.564 1.564 0 0 1-.213-.058 13.9 13.9 0 0 1-5.2-3.075 11.077 11.077 0 0 1-2.658-4.141 23.843 23.843 0 0 1-.964-8.7v-.04c.009-.212.02-.436.02-.684a2.329 2.329 0 0 1 2.2-2.284 9.051 9.051 0 0 0 6.158-2.595l.016-.015a1.409 1.409 0 0 1 1.913 0l.014.015a9.049 9.049 0 0 0 6.156 2.6 2.329 2.329 0 0 1 2.2 2.284c0 .249.011.473.02.684v.015a23.86 23.86 0 0 1-.968 8.722 11.089 11.089 0 0 1-2.658 4.141 13.911 13.911 0 0 1-5.2 3.079 1.526 1.526 0 0 1-.213.058 1.548 1.548 0 0 1-.619 0zm.229-20.646a10.055 10.055 0 0 1-3.133 2.1 11.326 11.326 0 0 1-3.844.845 1.036 1.036 0 0 0-.974 1.016c0 .257-.01.49-.02.715v.014a22.507 22.507 0 0 0 .884 8.232 10.664 10.664 0 0 0 7.07 6.449l.04.01a.28.28 0 0 0 .114 0l.042-.007a10.679 10.679 0 0 0 7.068-6.448v-.006a22.506 22.506 0 0 0 .889-8.243 15.44 15.44 0 0 1-.02-.715 1.035 1.035 0 0 0-.978-1.014 11.343 11.343 0 0 1-3.845-.845 10.073 10.073 0 0 1-3.132-2.105.12.12 0 0 0-.08-.03.117.117 0 0 0-.079.031zm-5.4 9.679a5.484 5.484 0 1 1 5.484 5.483 5.484 5.484 0 0 1-5.487-5.485zm1.292 0a4.192 4.192 0 1 0 4.192-4.191 4.192 4.192 0 0 0-4.195 4.189z" transform="translate(-1800.411 -4924)" style="fill:#111"/>
</svg>
