<svg xmlns="http://www.w3.org/2000/svg" width="28" height="28" viewBox="0 0 28 28">
    <path d="M0 0h28v28H0z" style="fill:none"/>
    <path data-name="Path 142832" d="M21.46 77.226H17.3a7.518 7.518 0 0 0 .817-1.4 4.571 4.571 0 0 0 .4-1.784 4.243 4.243 0 0 0-1.183-3.01A3.3 3.3 0 0 0 15 70.02a3.35 3.35 0 0 0-2.61 1.31 3.35 3.35 0 0 0-2.607-1.31 3.3 3.3 0 0 0-2.533 1.221 4.34 4.34 0 0 0-1 2.788 4.5 4.5 0 0 0 .389 1.789 7.391 7.391 0 0 0 .814 1.408h-3.97a.76.76 0 0 0-.659.382l-2.13 3.717a1.444 1.444 0 0 0 1.247 2.164h1.53l.217 3.811a1.917 1.917 0 0 0 2.223 1.91L7.546 89l.012 2.653a.76.76 0 0 0 .76.756h9.358a.76.76 0 0 0 .76-.76v-5.707c2.383-1.553 3.655-4.218 3.783-7.93a.76.76 0 0 0-.759-.786zM9.783 71.539a2.091 2.091 0 0 1 1.879 1.628.76.76 0 0 0 1.455 0A2.091 2.091 0 0 1 15 71.539a1.794 1.794 0 0 1 1.266.559A2.715 2.715 0 0 1 17 74.029a3.069 3.069 0 0 1-.278 1.19 7.893 7.893 0 0 1-1.581 2.22l-.038.04a18.92 18.92 0 0 1-2.719 2.267c-.37-.253-.958-.676-1.594-1.213a9.812 9.812 0 0 1-2.752-3.311 3 3 0 0 1-.267-1.184 2.308 2.308 0 0 1 2.012-2.499zm10.05 10.53a6.056 6.056 0 0 1-2.533 2.789.76.76 0 0 0-.381.659v5.371H9.075l-.01-2.155 1.435-.343a3.291 3.291 0 0 0 2.172-1.717c.468-.922 1.063-2.13 1.069-2.142a.76.76 0 1 0-1.363-.671c-.006.012-.6 1.212-1.061 2.126a1.774 1.774 0 0 1-1.17.926l-1.983.474-2.463.32h-.033a.383.383 0 0 1-.32-.089.4.4 0 0 1-.14-.318v-.062L4.966 83a.76.76 0 0 0-.711-1.029H2.076l1.847-3.224h4.852A20.15 20.15 0 0 0 11.99 81.3a.76.76 0 0 0 .8 0 20.241 20.241 0 0 0 3.2-2.555h4.665a9.918 9.918 0 0 1-.822 3.324zm0 0" transform="translate(2.5 -65.44)" style="fill:#111"/>
    <path data-name="Path 142833" d="M221.772 2.066a.76.76 0 0 0 .76-.76V.76a.76.76 0 0 0-1.52 0v.546a.76.76 0 0 0 .76.76zm0 0" transform="translate(-206.842 1.033)" style="fill:#111"/>
    <path data-name="Path 142834" d="M84.762 47.471a.76.76 0 0 0 1.076-1.071l-.484-.486a.76.76 0 0 0-1.076 1.073zm0 0" transform="translate(-76.823 -42.342)" style="fill:#111"/>
    <path data-name="Path 142835" d="M350.817 47.695a.758.758 0 0 0 .538-.223l.484-.486a.76.76 0 0 0-1.076-1.073l-.484.486a.76.76 0 0 0 .538 1.3zm0 0" transform="translate(-329.35 -42.342)" style="fill:#111"/>
    <path data-name="Path 142836" d="M38.178 153.777h.578a.76.76 0 1 0 0-1.52h-.578a.76.76 0 1 0 0 1.52zm0 0" transform="translate(-32.548 -143.512)" style="fill:#111"/>
    <path data-name="Path 142837" d="M394.537 152.258h-.589a.76.76 0 0 0 0 1.52h.589a.76.76 0 1 0 0-1.52zm0 0" transform="translate(-370.296 -143.512)" style="fill:#111"/>
</svg>
