<svg data-name="Manage Quote" xmlns="http://www.w3.org/2000/svg" width="28" height="28" viewBox="0 0 28 28">
    <path d="M0 0h28v28H0z" style="fill:none"/>
    <path data-name="Path 67592" d="m11790.324 9365.627-8.44-8.349a1.9 1.9 0 0 1-.547-1.313 1.864 1.864 0 0 1 1.859-1.864h1.943a.745.745 0 1 1 0 1.488h-1.95a.373.373 0 0 0-.258.642l8.44 8.358a.944.944 0 0 0 1.334 0l8.336-8.357a.353.353 0 0 0 .087-.407.363.363 0 0 0-.338-.237h-1.786a.744.744 0 0 1 0-1.487h1.782a1.857 1.857 0 0 1 1.314 3.171l-8.343 8.357a2.442 2.442 0 0 1-3.434 0zm3.838-7.3a.746.746 0 0 1-.514-.2l-5.811-5.49a.775.775 0 0 1-.231-.537.756.756 0 0 1 .741-.761h2.326a2.722 2.722 0 0 0 2.507-1.656l.147-.358h-4.987a.745.745 0 1 1 0-1.489h5l-.173-.365a2.873 2.873 0 0 0-2.5-1.647h-2.323a.746.746 0 0 1-.742-.745.721.721 0 0 1 .217-.522.746.746 0 0 1 .525-.222h8.124a.745.745 0 0 1 0 1.489l-2.536.01.243.386a5.011 5.011 0 0 1 .611 1.428l.051.194h1.635a.743.743 0 0 1 0 1.485h-1.641l-.041.2a4.154 4.154 0 0 1-3.94 3.286l-.615.02 4.436 4.206a.737.737 0 0 1-.5 1.275z" transform="translate(-11777.991 -9341.334)" style="fill:#111"/>
</svg>
