<svg xmlns="http://www.w3.org/2000/svg" width="28" height="28" viewBox="0 0 28 28">
    <g data-name="Refer &amp; Earn">
        <path d="M0 0h28v28H0z" style="fill:none"/>
        <path d="M0 0h28v28H0z" style="fill:none"/>
        <path d="M10.78 11.683H11.199a9.463 9.463 0 0 1 4.39 1.185.859.859 0 1 0 .836-1.5 11.1 11.1 0 0 0-1.931-.844 5.844 5.844 0 1 0-6.994 0 11.175 11.175 0 0 0-7.445 8.327A2.611 2.611 0 0 0 2.607 22h6.717a.859.859 0 1 0 0-1.719H2.607a.873.873 0 0 1-.687-.327.9.9 0 0 1-.182-.753 9.495 9.495 0 0 1 9.042-7.518zM6.875 5.844a4.125 4.125 0 1 1 4.33 4.12h-.4a4.13 4.13 0 0 1-3.93-4.12zM22 15.977a2.124 2.124 0 0 1-.632 1.519l-1.6 1.59a.859.859 0 1 1-1.212-1.219l1.073-1.067h-4.87a1.74 1.74 0 0 0-.021 3.479.859.859 0 1 1 0 1.719 3.4 3.4 0 0 1-2.438-1.014 3.466 3.466 0 0 1 2.459-5.9h4.791l-.991-.98a.859.859 0 0 1 1.209-1.222l1.6 1.578A2.124 2.124 0 0 1 22 15.977zm0 0" transform="translate(3 3)" style="fill:#111"/>
    </g>
</svg>
