<svg xmlns="http://www.w3.org/2000/svg" width="28" height="28" viewBox="0 0 28 28">
    <path d="M0 0h28v28H0z" style="fill:none"/>
    <path d="M0 0h28v28H0z" style="fill:none"/>
    <path data-name="-e-favourites-icn" d="m806.425 348.537-8.617-8.808a6.394 6.394 0 0 1-.01-8.912 6.069 6.069 0 0 1 8.724.01l.478.488.47-.478a6.074 6.074 0 0 1 8.724-.005 6.411 6.411 0 0 1-.009 8.918l-8.636 8.8a.786.786 0 0 1-.559.235.8.8 0 0 1-.566-.243zm-7.5-16.568a4.755 4.755 0 0 0 0 6.622l8.059 8.237 8.075-8.225a4.765 4.765 0 0 0 0-6.626 4.51 4.51 0 0 0-6.476 0l-1.026 1.051a.783.783 0 0 1-1.123 0l-1.037-1.059a4.509 4.509 0 0 0-6.476-.005zm8.238 11.856-3.283-3.412 1.017-1.056 2.32 2.41 5.854-6.085 1.016 1.057-.048.05-6.82 7.087z" transform="translate(-792.994 -324.875)" style="fill:#111"/>
</svg>
