<svg xmlns="http://www.w3.org/2000/svg" width="28" height="28" viewBox="0 0 28 28">
    <path d="M0 0h28v28H0z" style="fill:none"/>
    <path data-name="Path 3495" d="M1807.831 4212.495a2.915 2.915 0 0 1-2.831-2.982v-11.53a2.914 2.914 0 0 1 2.831-2.982h7.474a2.913 2.913 0 0 1 2.831 2.981v1.774a.636.636 0 1 1-1.271 0v-1.832a1.616 1.616 0 0 0-1.568-1.657h-7.467a1.617 1.617 0 0 0-1.567 1.657v11.667a1.615 1.615 0 0 0 1.567 1.657h7.465a1.616 1.616 0 0 0 1.567-1.657v-2.027a.636.636 0 1 1 1.271 0v1.948a2.915 2.915 0 0 1-2.831 2.983zm14.715-4.375-.281-.275a.47.47 0 0 1 0-.661l2.381-2.385h-9.036a.474.474 0 0 1-.478-.46v-.394a.482.482 0 0 1 .472-.478h9.061l-2.4-2.392a.445.445 0 0 1-.136-.322.458.458 0 0 1 .136-.329l.278-.279a.467.467 0 0 1 .659 0l3.66 3.657a.469.469 0 0 1 0 .66l-3.658 3.656a.466.466 0 0 1-.659 0z" transform="translate(-1801.998 -4189.6)" style="fill:#111;stroke:transparent"/>
</svg>
