<svg data-name="Custom Service" xmlns="http://www.w3.org/2000/svg" width="28" height="28" viewBox="0 0 28 28">
    <path d="M0 0h28v28H0z" style="fill:none"/>
    <path data-name="Path 5867" d="M12440.271 14195.066v-2.277a.73.73 0 1 1 1.459 0v.809a6.582 6.582 0 0 0 5.871-6.523v-.807a.693.693 0 0 1 .734-.734h.441a3.257 3.257 0 0 1 3.221 3.227v.221a3.244 3.244 0 0 1-3.221 3.158h-.441a.687.687 0 0 1-.705-.5 8.085 8.085 0 0 1-6.629 3.432zm8.8-7.992c0 .094-.006.188-.012.275v3.32a1.792 1.792 0 0 0 1.469-1.689v-.221a1.805 1.805 0 0 0-1.463-1.758c.001.026.007.05.007.073zm-15.848 5.059a3.254 3.254 0 0 1-3.227-3.227v-.219a3.244 3.244 0 0 1 3.227-3.154h.441a.694.694 0 0 1 .734.734v5.131a.694.694 0 0 1-.734.734zm-1.758-3.445v.219a1.67 1.67 0 0 0 1.471 1.684V14187a1.8 1.8 0 0 0-1.469 1.688zm16.135-4.625a6.6 6.6 0 0 0-13.2 0 .731.731 0 1 1-1.463 0 8.064 8.064 0 0 1 16.129 0 .732.732 0 1 1-1.465 0z" transform="translate(-12426.998 -14171.532)" style="fill:#111;stroke:#111;stroke-width:.2px"/>
</svg>
