<svg data-name="Jd Partner Programe" xmlns="http://www.w3.org/2000/svg" width="28" height="28" viewBox="0 0 28 28">
    <path d="M0 0h28v28H0z" style="fill:none"/>
    <g data-name="Group 129964">
        <g data-name="Group 129963">
            <path data-name="Path 142842" d="M88.806 127.113c-.432-.9-1.976-2.15-3.469-3.357-.832-.673-1.619-1.309-2.12-1.81a.458.458 0 0 0-.479-.107c-.309.112-.5.2-.65.265a1.516 1.516 0 0 1-.615.169.458.458 0 0 0-.336.2 1.4 1.4 0 0 1-1.767.736c-.143-.048-.169-.109-.182-.168a3.03 3.03 0 0 1 1.013-1.965c1.49-1.491 2.258-1.864 3.88-1.139 1.841.823 3.685 1.468 3.7 1.474a.459.459 0 0 0 .3-.866 51.991 51.991 0 0 1-3.63-1.446c-2.1-.94-3.255-.321-4.9 1.327-.627.627-1.479 1.9-1.259 2.826a1.134 1.134 0 0 0 .787.826 2.294 2.294 0 0 0 2.692-.922 2.314 2.314 0 0 0 .688-.218c.086-.038.187-.083.321-.137.524.492 1.232 1.065 1.977 1.667a15.332 15.332 0 0 1 3.219 3.041.537.537 0 0 1-.137.688.505.505 0 0 1-.565.111.458.458 0 0 0-.716.426.554.554 0 0 1-.351.516.7.7 0 0 1-.714.017.458.458 0 0 0-.769.292.871.871 0 0 1-.541.7.483.483 0 0 1-.526-.082.464.464 0 0 0-.419-.106.458.458 0 0 0-.322.289c-.017.046-.057.156-.486.156a2.639 2.639 0 0 1-1.123-.384c-.322-.212-2.339-1.717-4.082-3.176-.245-.206-.668-.648-1.042-1.039-.332-.346-.635-.661-.791-.793a.459.459 0 0 0-.592.7c.142.12.417.411.721.727.409.427.831.869 1.116 1.107 1.707 1.429 3.758 2.972 4.167 3.24a3.516 3.516 0 0 0 1.627.534 1.578 1.578 0 0 0 1.04-.306 1.427 1.427 0 0 0 1.042-.011 1.806 1.806 0 0 0 .954-.881 1.772 1.772 0 0 0 1.15-.166 1.555 1.555 0 0 0 .765-.8 1.5 1.5 0 0 0 1.051-.377 1.457 1.457 0 0 0 .373-1.778z" transform="translate(-68.435 -110.559)" style="fill:#111"/>
        </g>
    </g>
    <g data-name="Group 129966">
        <g data-name="Group 129965">
            <path data-name="Path 142843" d="M111.249 138.663h-4.125a.458.458 0 1 0 0 .917h4.125a.458.458 0 0 0 0-.917z" transform="translate(-99.083 -129.704)" style="fill:#111"/>
        </g>
    </g>
    <g data-name="Group 129968">
        <g data-name="Group 129967">
            <path data-name="Path 142844" d="M386.99 288.181a.457.457 0 0 0-.636-.125l-1.34.9a.458.458 0 0 0 .512.761l1.34-.9a.459.459 0 0 0 .124-.636z" transform="translate(-365.276 -272.603)" style="fill:#111"/>
        </g>
    </g>
    <g data-name="Group 129970">
        <g data-name="Group 129969">
            <path data-name="Path 142845" d="M291.508 280.166c-.328-.258-1.8-1.761-2.7-2.707a.458.458 0 0 0-.662.634c.236.246 2.314 2.412 2.8 2.793a.456.456 0 0 0 .283.1.463.463 0 0 0 .361-.175.458.458 0 0 0-.082-.645z" transform="translate(-272.64 -262.401)" style="fill:#111"/>
        </g>
    </g>
    <g data-name="Group 129972">
        <g data-name="Group 129971">
            <path data-name="Path 142846" d="M259.042 311.729c-.549-.439-1.929-1.9-2.24-2.244a.459.459 0 0 0-.676.621c.017.017 1.663 1.795 2.343 2.339a.458.458 0 0 0 .573-.716z" transform="translate(-242.005 -293.045)" style="fill:#111"/>
        </g>
    </g>
    <g data-name="Group 129974">
        <g data-name="Group 129973">
            <path data-name="Path 142847" d="M216.389 333.044c-.654-.551-1.991-1.974-2.252-2.254a.459.459 0 1 0-.67.626c.376.4 1.656 1.759 2.331 2.329a.459.459 0 0 0 .591-.7z" transform="translate(-201.176 -313.436)" style="fill:#111"/>
        </g>
    </g>
    <g data-name="Group 129976">
        <g data-name="Group 129975">
            <path data-name="Path 142848" d="M5.357 97.045C4.571 96.3 1.43 96.06.486 96a.458.458 0 0 0-.486.462v8.25a.459.459 0 0 0 .458.458h2.75a.458.458 0 0 0 .435-.316A48.055 48.055 0 0 0 5.5 97.418a.456.456 0 0 0-.143-.373zm-2.483 7.208H.917v-7.3a13.925 13.925 0 0 1 3.64.65 48.094 48.094 0 0 1-1.683 6.65z" transform="translate(3 -88.878)" style="fill:#111"/>
        </g>
    </g>
    <g data-name="Group 129978">
        <g data-name="Group 129977">
            <path data-name="Path 142849" d="M368.988 117.33a14.3 14.3 0 0 0-5.679.96.456.456 0 0 0-.245.285.462.462 0 0 0 .05.372 60.934 60.934 0 0 1 2.681 7.213.458.458 0 0 0 .442.336h2.75a.459.459 0 0 0 .458-.458v-8.25a.458.458 0 0 0-.457-.458zm-.458 8.25h-1.949c-.434-1.415-1.718-5.106-2.434-6.631a14.928 14.928 0 0 1 4.383-.7z" transform="translate(-344.446 -109.288)" style="fill:#111"/>
        </g>
    </g>
</svg>
