<svg data-name="My Transaction" xmlns="http://www.w3.org/2000/svg" width="28" height="28" viewBox="0 0 28 28">
    <path d="M0 0h28v28H0z" style="fill:none"/>
    <path data-name="-e-mytransactions-icn" d="M800.009 570.966v-17.454h4.521v-4.546h8.346v4.546h4.543v17.454zm1.516-1.5H815.9v-14.4h-3.031v3h1.536v1.515H803.02v-1.515h1.51v-3h-3zm4.543-11.4h5.31v-7.547h-5.31zm6.051 8.355V564.9h2.3v1.515zm-4.524 0V564.9h2.25v1.515zm-4.569 0V564.9h2.3v1.515zm9.093-3.031v-1.516h2.3v1.516zm-4.524 0v-1.516h2.25v1.516zm-4.569 0v-1.516h2.3v1.516zm3.811-6.812v-1.516h3.758v1.516zm0-3.045v-1.516h3.758v1.516z" transform="translate(-794.714 -545.966)" style="fill:#111"/>
</svg>
