<svg data-name="Investor Relations" xmlns="http://www.w3.org/2000/svg" width="28" height="28" viewBox="0 0 28 28">
    <path d="M0 0h28v28H0z" style="fill:none"/>
    <g data-name="Group 129986">
        <path data-name="Union 31" d="M-10616.076 7403v-6.239a4.121 4.121 0 0 0-4.117-4.117h-.539l-1.388 1.929 1.123 5.686-2.526 2.377-2.53-2.377 1.124-5.684-1.391-1.932h-.533a4.123 4.123 0 0 0-4.12 4.117v6.24h-1.289v-6.239a5.416 5.416 0 0 1 5.1-5.4 5.815 5.815 0 0 1-2.183-4.542 5.83 5.83 0 0 1 5.822-5.823 5.83 5.83 0 0 1 5.822 5.823 5.818 5.818 0 0 1-2.183 4.542 5.417 5.417 0 0 1 5.1 5.4V7403zm-8.573-3.191 1.126 1.059 1.126-1.059-.939-4.736h-.376zm.736-6.025h.773l.819-1.139h-2.412zm-4.145-6.961a4.538 4.538 0 0 0 4.534 4.533 4.538 4.538 0 0 0 4.533-4.533 4.538 4.538 0 0 0-4.533-4.534 4.538 4.538 0 0 0-4.534 4.534zm4.764 3.557-2.429-2.428a.371.371 0 0 1-.08-.445.35.35 0 0 1 .363-.243h1.214a1.1 1.1 0 0 0 .849-.365.964.964 0 0 0 .3-.446h-2.361a.38.38 0 0 1-.4-.4.382.382 0 0 1 .4-.406h2.361a.975.975 0 0 0-.3-.445 1.1 1.1 0 0 0-.849-.363h-1.214a.382.382 0 0 1-.4-.405.382.382 0 0 1 .4-.406h4.453a.382.382 0 0 1 .4.406.382.382 0 0 1-.4.405h-1.619a2.4 2.4 0 0 1 .36.809h1.259a.382.382 0 0 1 .4.406.38.38 0 0 1-.4.4h-1.254a1.863 1.863 0 0 1-.568 1.014 1.9 1.9 0 0 1-1.417.605h-.243l1.74 1.743a.388.388 0 0 1 0 .565.365.365 0 0 1-.283.12.365.365 0 0 1-.282-.122z" transform="translate(10637.524 -7378)" style="fill:#111"/>
        <path data-name="Path 142852" d="M90 384h1.289v5.5H90zm0 0" transform="translate(-80.871 -364.5)" style="fill:#111"/>
        <path data-name="Path 142853" d="M286.7 384h1.289v5.5H286.7zm0 0" transform="translate(-269.114 -364.5)" style="fill:#111"/>
    </g>
</svg>
