<svg xmlns="http://www.w3.org/2000/svg" width="28" height="28" viewBox="0 0 28 28">
    <path d="M0 0h28v28H0z" style="fill:none"/>
    <g data-name="comment (1)">
        <path data-name="Path 142856" d="M22.637 6.438h-.645v-1.5a1.934 1.934 0 0 0-3.867 0v.528a1.51 1.51 0 0 1-1.091 1.446l-.628.179a.645.645 0 0 0-.645-.645h-2.577a.645.645 0 0 0-.645.645v2.87H4.934A1.936 1.936 0 0 0 3 11.895v12.46a.644.644 0 0 0 1 .536l2.416-1.61h12.268a1.936 1.936 0 0 0 1.934-1.934V14.6h2.02A2.366 2.366 0 0 0 25 12.238V8.8a2.366 2.366 0 0 0-2.363-2.362zm-8.809 1.289h1.289v5.586h-1.289zm5.5 13.621a.645.645 0 0 1-.645.645H6.223a.644.644 0 0 0-.358.108l-1.576 1.05V11.895a.645.645 0 0 1 .645-.645h7.605v2.707a.645.645 0 0 0 .645.645h2.578a.644.644 0 0 0 .64-.571 3.63 3.63 0 0 0 1.951.571h.975zm4.383-9.109a1.075 1.075 0 0 1-1.074 1.074h-4.284a2.346 2.346 0 0 1-1.947-1.042V8.428l.982-.281a2.8 2.8 0 0 0 2.026-2.686v-.527a.645.645 0 0 1 1.289 0v2.148a.645.645 0 0 0 .645.645h1.289A1.075 1.075 0 0 1 23.711 8.8z"/>
        <path data-name="Path 142857" d="M6.223 15.117h4.3a.645.645 0 0 0 0-1.289h-4.3a.645.645 0 0 0 0 1.289z"/>
        <path data-name="Path 142858" d="M17.394 16.406H6.223a.645.645 0 0 0 0 1.289h11.171a.645.645 0 0 0 0-1.289z"/>
        <path data-name="Path 142859" d="M17.394 18.984H6.223a.645.645 0 0 0 0 1.289h11.171a.645.645 0 0 0 0-1.289z"/>
    </g>
</svg>
