<svg xmlns="http://www.w3.org/2000/svg" width="40" height="40" viewBox="0 0 40 40">
    <g>
        <g>
            <g fill="#333">
                <path stroke="#333" stroke-width="0.2px" d="M17.878 217.025a1.635 1.635 0 0 0-1.515-1.011h-1.485a.7.7 0 0 0 0 1.406h1.486a.223.223 0 0 1 .216.144.218.218 0 0 1-.05.252L9.551 224.8a.708.708 0 0 1-1 0l-7.061-6.984a.218.218 0 0 1-.051-.252.223.223 0 0 1 .216-.144h1.627a.7.7 0 1 0 0-1.406H1.655a1.638 1.638 0 0 0-1.157 2.8l7.063 6.986a2.115 2.115 0 0 0 2.985 0l6.979-6.988a1.633 1.633 0 0 0 .353-1.787z" transform="translate(-21 -425) translate(-2 49) translate(34.333 386.467) translate(-.015 -207.712)"/>
                <path stroke="#fff" stroke-width="0.3px" d="M272.285 289.794a.837.837 0 1 0 0-1.673h-6.795a.837.837 0 1 0 0 1.673h1.941a2.193 2.193 0 0 1 1.9 1.255h-3.849a.837.837 0 0 0 0 1.674h3.849a2.061 2.061 0 0 1-1.9 1.255h-1.941a.846.846 0 0 0-.577 1.456l4.862 4.594a.837.837 0 0 0 .577.226.833.833 0 0 0 .577-1.439l-3.33-3.163a3.693 3.693 0 0 0 3.5-2.92h1.2a.837.837 0 0 0 0-1.674h-1.2a4.5 4.5 0 0 0-.535-1.255h1.724zm0 0" transform="translate(-21 -425) translate(-2 49) translate(34.333 386.467) translate(-259.118 -288.121)"/>
            </g>
        </g>
    </g>
</svg>
